<svg width="126" height="20" viewBox="0 0 126 20" fill="none" xmlns="http://www.w3.org/2000/svg">
<path d="M0.517045 1.54545H5.06818L9.875 13.2727H10.0795L14.8864 1.54545H19.4375V19H15.858V7.6392H15.7131L11.196 18.9148H8.75852L4.24148 7.59659H4.09659V19H0.517045V1.54545ZM28.3246 19.2557C27.0007 19.2557 25.8558 18.9744 24.8899 18.4119C23.9297 17.8437 23.1882 17.054 22.6655 16.0426C22.1428 15.0256 21.8814 13.8466 21.8814 12.5057C21.8814 11.1534 22.1428 9.97159 22.6655 8.96023C23.1882 7.94318 23.9297 7.15341 24.8899 6.59091C25.8558 6.02273 27.0007 5.73864 28.3246 5.73864C29.6484 5.73864 30.7905 6.02273 31.7507 6.59091C32.7166 7.15341 33.4609 7.94318 33.9837 8.96023C34.5064 9.97159 34.7678 11.1534 34.7678 12.5057C34.7678 13.8466 34.5064 15.0256 33.9837 16.0426C33.4609 17.054 32.7166 17.8437 31.7507 18.4119C30.7905 18.9744 29.6484 19.2557 28.3246 19.2557ZM28.3416 16.4432C28.9439 16.4432 29.4467 16.2727 29.8501 15.9318C30.2536 15.5852 30.5575 15.1136 30.7621 14.517C30.9723 13.9205 31.0774 13.2415 31.0774 12.4801C31.0774 11.7188 30.9723 11.0398 30.7621 10.4432C30.5575 9.84659 30.2536 9.375 29.8501 9.02841C29.4467 8.68182 28.9439 8.50852 28.3416 8.50852C27.7337 8.50852 27.2223 8.68182 26.8075 9.02841C26.3984 9.375 26.0888 9.84659 25.8786 10.4432C25.674 11.0398 25.5717 11.7188 25.5717 12.4801C25.5717 13.2415 25.674 13.9205 25.8786 14.517C26.0888 15.1136 26.3984 15.5852 26.8075 15.9318C27.2223 16.2727 27.7337 16.4432 28.3416 16.4432ZM48.9112 5.90909L44.3345 19H40.2436L35.6669 5.90909H39.5021L42.2209 15.2756H42.3572L45.0675 5.90909H48.9112ZM50.7692 19V5.90909H54.3999V19H50.7692ZM52.593 4.22159C52.0533 4.22159 51.5902 4.04261 51.2038 3.68466C50.8232 3.32102 50.6328 2.88636 50.6328 2.38068C50.6328 1.88068 50.8232 1.4517 51.2038 1.09375C51.5902 0.730113 52.0533 0.548295 52.593 0.548295C53.1328 0.548295 53.593 0.730113 53.9737 1.09375C54.3601 1.4517 54.5533 1.88068 54.5533 2.38068C54.5533 2.88636 54.3601 3.32102 53.9737 3.68466C53.593 4.04261 53.1328 4.22159 52.593 4.22159ZM63.2741 19.2557C61.9276 19.2557 60.7685 18.983 59.7969 18.4375C58.831 17.8864 58.0866 17.108 57.5639 16.1023C57.0412 15.0909 56.7798 13.8949 56.7798 12.5142C56.7798 11.1676 57.0412 9.9858 57.5639 8.96875C58.0866 7.9517 58.8224 7.15909 59.7713 6.59091C60.7259 6.02273 61.8452 5.73864 63.1293 5.73864C63.9929 5.73864 64.7969 5.87784 65.5412 6.15625C66.2912 6.42898 66.9446 6.84091 67.5014 7.39205C68.0639 7.94318 68.5014 8.63636 68.8139 9.47159C69.1264 10.3011 69.2827 11.2727 69.2827 12.3864V13.3835H58.2287V11.1335H65.8651C65.8651 10.6108 65.7514 10.1477 65.5241 9.74432C65.2969 9.34091 64.9815 9.02557 64.5781 8.7983C64.1804 8.56534 63.7173 8.44886 63.1889 8.44886C62.6378 8.44886 62.1491 8.5767 61.723 8.83239C61.3026 9.08239 60.973 9.42045 60.7344 9.84659C60.4957 10.267 60.3736 10.7358 60.3679 11.2528V13.392C60.3679 14.0398 60.4872 14.5994 60.7259 15.071C60.9702 15.5426 61.3139 15.9062 61.7571 16.1619C62.2003 16.4176 62.7259 16.5455 63.3338 16.5455C63.7372 16.5455 64.1065 16.4886 64.4418 16.375C64.777 16.2614 65.0639 16.0909 65.3026 15.8636C65.5412 15.6364 65.723 15.358 65.848 15.0284L69.206 15.25C69.0355 16.0568 68.6861 16.7614 68.1577 17.3636C67.6349 17.9602 66.9588 18.4261 66.1293 18.7614C65.3054 19.0909 64.3537 19.2557 63.2741 19.2557ZM71.7202 19V1.54545H75.4105V15.9574H82.8935V19H71.7202ZM91.2351 19.2557C89.8885 19.2557 88.7294 18.983 87.7578 18.4375C86.7919 17.8864 86.0476 17.108 85.5249 16.1023C85.0021 15.0909 84.7408 13.8949 84.7408 12.5142C84.7408 11.1676 85.0021 9.9858 85.5249 8.96875C86.0476 7.9517 86.7834 7.15909 87.7322 6.59091C88.6868 6.02273 89.8061 5.73864 91.0902 5.73864C91.9538 5.73864 92.7578 5.87784 93.5021 6.15625C94.2521 6.42898 94.9055 6.84091 95.4624 7.39205C96.0249 7.94318 96.4624 8.63636 96.7749 9.47159C97.0874 10.3011 97.2436 11.2727 97.2436 12.3864V13.3835H86.1896V11.1335H93.826C93.826 10.6108 93.7124 10.1477 93.4851 9.74432C93.2578 9.34091 92.9425 9.02557 92.5391 8.7983C92.1413 8.56534 91.6783 8.44886 91.1499 8.44886C90.5987 8.44886 90.1101 8.5767 89.6839 8.83239C89.2635 9.08239 88.9339 9.42045 88.6953 9.84659C88.4567 10.267 88.3345 10.7358 88.3288 11.2528V13.392C88.3288 14.0398 88.4482 14.5994 88.6868 15.071C88.9311 15.5426 89.2749 15.9062 89.718 16.1619C90.1612 16.4176 90.6868 16.5455 91.2947 16.5455C91.6982 16.5455 92.0675 16.4886 92.4027 16.375C92.7379 16.2614 93.0249 16.0909 93.2635 15.8636C93.5021 15.6364 93.6839 15.358 93.8089 15.0284L97.1669 15.25C96.9964 16.0568 96.647 16.7614 96.1186 17.3636C95.5959 17.9602 94.9197 18.4261 94.0902 18.7614C93.2663 19.0909 92.3146 19.2557 91.2351 19.2557ZM103.244 11.4318V19H99.6129V5.90909H103.073V8.21875H103.227C103.516 7.45739 104.002 6.85511 104.684 6.41193C105.366 5.96307 106.192 5.73864 107.164 5.73864C108.073 5.73864 108.866 5.9375 109.542 6.33523C110.218 6.73295 110.744 7.30114 111.119 8.03977C111.494 8.77273 111.681 9.64773 111.681 10.6648V19H108.05V11.3125C108.056 10.5114 107.852 9.88636 107.437 9.4375C107.022 8.98295 106.451 8.75568 105.724 8.75568C105.235 8.75568 104.803 8.8608 104.428 9.07102C104.059 9.28125 103.769 9.58807 103.559 9.99148C103.354 10.3892 103.249 10.8693 103.244 11.4318ZM125.435 9.64205L122.111 9.84659C122.054 9.5625 121.932 9.30682 121.744 9.07955C121.557 8.84659 121.31 8.66193 121.003 8.52557C120.702 8.38352 120.341 8.3125 119.92 8.3125C119.358 8.3125 118.884 8.43182 118.497 8.67045C118.111 8.90341 117.918 9.21591 117.918 9.60795C117.918 9.92045 118.043 10.1847 118.293 10.4006C118.543 10.6165 118.972 10.7898 119.58 10.9205L121.949 11.3977C123.222 11.6591 124.17 12.0795 124.795 12.6591C125.42 13.2386 125.733 14 125.733 14.9432C125.733 15.8011 125.48 16.554 124.974 17.2017C124.474 17.8494 123.787 18.3551 122.912 18.7188C122.043 19.0767 121.04 19.2557 119.903 19.2557C118.17 19.2557 116.79 18.8949 115.761 18.1733C114.739 17.446 114.139 16.4574 113.963 15.2074L117.534 15.0199C117.642 15.5483 117.903 15.9517 118.318 16.2301C118.733 16.5028 119.264 16.6392 119.912 16.6392C120.548 16.6392 121.06 16.517 121.446 16.2727C121.838 16.0227 122.037 15.7017 122.043 15.3097C122.037 14.9801 121.898 14.7102 121.625 14.5C121.352 14.2841 120.932 14.1193 120.364 14.0057L118.097 13.554C116.818 13.2983 115.866 12.8551 115.241 12.2244C114.622 11.5937 114.312 10.7898 114.312 9.8125C114.312 8.97159 114.54 8.24716 114.994 7.6392C115.455 7.03125 116.099 6.5625 116.929 6.23295C117.764 5.90341 118.741 5.73864 119.861 5.73864C121.514 5.73864 122.815 6.08807 123.764 6.78693C124.719 7.4858 125.276 8.4375 125.435 9.64205Z" fill="#E6111B"/>
</svg>
