<svg width="24" height="26" viewBox="0 0 24 26" fill="none" xmlns="http://www.w3.org/2000/svg">
<path d="M11.9947 14.7554C13.5582 14.7554 14.8257 16.0229 14.8257 17.5864C14.8257 19.15 13.5582 20.4174 11.9947 20.4174C10.4311 20.4174 9.1636 19.1499 9.1636 17.5864C9.16545 16.0236 10.4319 14.7572 11.9945 14.7554H11.9947ZM11.9947 18.821C12.6765 18.821 13.2292 18.2683 13.2292 17.5864C13.2292 16.9046 12.6765 16.3518 11.9947 16.3518C11.3128 16.3518 10.7601 16.9045 10.7601 17.5864C10.7607 18.268 11.3131 18.8204 11.9946 18.821H11.9947L11.9947 18.821ZM15.8474 24.7172H14.251V22.6844C14.251 21.4383 13.2408 20.4281 11.9947 20.4281C10.7485 20.4281 9.73837 21.4382 9.73837 22.6844V24.7172H8.14193V22.6844C8.14193 20.5566 9.86686 18.8316 11.9947 18.8316C14.1225 18.8316 15.8475 20.5566 15.8475 22.6844L15.8474 24.7172ZM5.88556 14.7554C7.44913 14.7554 8.71661 16.0229 8.71661 17.5864C8.71661 19.15 7.4491 20.4174 5.88556 20.4174C4.32203 20.4174 3.05455 19.1499 3.05455 17.5864C3.05637 16.0236 4.32279 14.7572 5.88541 14.7554H5.88556ZM5.88556 18.821C6.56742 18.821 7.12017 18.2683 7.12017 17.5864C7.12017 16.9046 6.56744 16.3518 5.88558 16.3518C5.20377 16.3518 4.65101 16.9045 4.65101 17.5864C4.65163 18.268 5.204 18.8204 5.88553 18.821H5.8856L5.88556 18.821ZM9.73833 24.7172H8.14191V22.6844C8.14191 21.4383 7.13174 20.4281 5.8856 20.4281C4.63947 20.4281 3.6293 21.4382 3.6293 22.6844V24.7172H2.03284V22.6844C2.03284 20.5566 3.75776 18.8316 5.8856 18.8316C8.01345 18.8316 9.73837 20.5566 9.73837 22.6844L9.73833 24.7172ZM18.1038 14.7554C19.6673 14.7554 20.9348 16.0229 20.9348 17.5864C20.9348 19.15 19.6673 20.4174 18.1038 20.4174C16.5402 20.4174 15.2727 19.1499 15.2727 17.5864C15.2745 16.0236 16.541 14.7572 18.1036 14.7554H18.1038ZM18.1038 18.821C18.7856 18.821 19.3383 18.2683 19.3383 17.5864C19.3383 16.9046 18.7856 16.3518 18.1038 16.3518C17.4219 16.3518 16.8692 16.9045 16.8692 17.5864C16.8698 18.268 17.4222 18.8204 18.1037 18.821H18.1038V18.821ZM21.9565 24.7172H20.36V22.6844C20.36 21.4383 19.3499 20.4281 18.1038 20.4281C16.8576 20.4281 15.8475 21.4382 15.8475 22.6844L15.8474 24.7172H14.251V22.6844C14.251 20.5566 15.976 18.8316 18.1038 18.8316C20.2316 18.8316 21.9566 20.5566 21.9566 22.6844L21.9565 24.7172ZM0 8.20996V0.504425H13.4623L12.5417 1.92638C9.97809 5.73659 5.68204 8.20996 0.808292 8.20996H0.797651H0.798195H0ZM1.59646 2.10089V6.58794C5.15508 6.35704 8.27886 4.66917 10.4065 2.12075L10.4227 2.10089H1.59646ZM1.59646 24.7172H0V5.92386L1.23996 6.74653C3.23153 8.08332 4.83797 9.84501 5.95633 11.9097L5.99416 11.9861L6.01544 12.0297C6.45794 12.963 6.89211 14.096 7.24533 15.2642L7.29262 15.446L5.76106 15.8963C5.38896 14.6382 4.98621 13.583 4.51458 12.5663L4.57648 12.7151C3.79193 11.2689 2.79606 10.0428 1.61365 9.02788L1.59646 9.01345V24.7172ZM23.9893 24.7172H22.3929V9.0135C21.1882 10.0486 20.1891 11.2827 19.438 12.6706L19.4043 12.7385C18.9145 13.6346 18.5151 14.6728 18.2597 15.7663L18.2432 15.8505L16.6861 15.4972C16.9923 14.1681 17.4427 12.9964 18.0319 11.911L17.9952 11.985C19.1516 9.84473 20.758 8.08372 22.6976 6.78034L22.7494 6.74755L23.9894 5.92486L23.9893 24.7172ZM23.9893 8.20996H23.1782C18.3063 8.20996 14.0116 5.73844 11.4795 1.98079L11.4476 1.93062L11.4413 1.92104L10.527 0.504449H23.9893L23.9893 8.20996ZM13.5666 2.10089C15.7105 4.66917 18.8343 6.35704 22.3558 6.58602L22.3929 6.58796V2.10089H13.5666Z" fill="black"/>
</svg>
