<svg width="24" height="24" viewBox="0 0 24 24" fill="none" xmlns="http://www.w3.org/2000/svg">
<g clip-path="url(#clip0_347_1282)">
<path d="M0 0H24V24H0V0Z" fill="white" fill-opacity="0.01"/>
<path fill-rule="evenodd" clip-rule="evenodd" d="M2.90918 2.36365C3.46146 2.36365 3.90918 2.81136 3.90918 3.36365V6H6.54556C7.09784 6 7.54556 6.44772 7.54556 7C7.54556 7.55229 7.09784 8 6.54556 8H2.90918C2.35689 8 1.90918 7.55229 1.90918 7V3.36365C1.90918 2.81136 2.35689 2.36365 2.90918 2.36365Z" fill="black"/>
<path fill-rule="evenodd" clip-rule="evenodd" d="M2.47283 6.49823C4.37341 3.21349 7.92764 1 12 1C18.0751 1 23 5.92487 23 12C23 18.0751 18.0751 23 12 23C5.92487 23 1 18.0751 1 12C1 11.4477 1.44772 11 2 11C2.55228 11 3 11.4477 3 12C3 16.9706 7.02943 21 12 21C16.9706 21 21 16.9706 21 12C21 7.02943 16.9706 3 12 3C8.67036 3 5.76169 4.80762 4.20394 7.49987C3.92735 7.9779 3.3156 8.1412 2.83757 7.8646C2.35954 7.58801 2.19624 6.97627 2.47283 6.49823Z" fill="black"/>
<path fill-rule="evenodd" clip-rule="evenodd" d="M12.0027 5C12.5549 5.00006 13.0026 5.44782 13.0026 6.0001L13.002 11.5902L16.9488 15.537C17.3393 15.9275 17.3393 16.5607 16.9488 16.9512C16.5582 17.3417 15.9251 17.3417 15.5345 16.9512L11.2948 12.7115C11.1073 12.5239 11.0019 12.2696 11.002 12.0043L11.0026 5.9999C11.0026 5.44762 11.4504 4.99994 12.0027 5Z" fill="black"/>
</g>
<defs>
<clipPath id="clip0_347_1282">
<rect width="24" height="24" fill="white"/>
</clipPath>
</defs>
</svg>
