<svg width="24" height="25" viewBox="0 0 24 25" fill="none" xmlns="http://www.w3.org/2000/svg">
<path d="M11.884 0.495156C18.4472 0.495272 23.7677 5.81584 23.7677 12.3791C23.7677 15.6607 22.4376 18.6316 20.2871 20.7822C18.1407 22.9086 15.1861 24.2224 11.9247 24.2224C5.36139 24.2224 0.0407715 18.9017 0.0407715 12.3384C0.0407715 9.07699 1.35455 6.12241 3.48178 3.97509L3.48085 3.97597C5.62021 1.82576 8.58157 0.495087 11.8536 0.495087L11.8856 0.495156H11.884ZM11.884 22.6813C17.5738 22.6813 22.1862 18.0689 22.1862 12.3791C22.1862 6.68934 17.5738 2.0769 11.884 2.0769C6.19424 2.0769 1.58179 6.68936 1.58179 12.3791C1.58838 18.0662 6.19691 22.6747 11.8834 22.6813H11.884V22.6813ZM11.884 3.52148C13.4331 3.52148 14.6889 4.7773 14.6889 6.32641C14.6889 7.87553 13.4331 9.13133 11.884 9.13133C10.3349 9.13133 9.07909 7.87553 9.07909 6.32641C9.0809 4.77802 10.3356 3.52331 11.8838 3.5215H11.884V3.52148ZM11.884 7.5496C12.5596 7.5496 13.1072 7.00197 13.1072 6.32639C13.1072 5.65082 12.5596 5.10323 11.884 5.10323C11.2085 5.10323 10.6608 5.65086 10.6608 6.32644C10.6614 7.00173 11.2087 7.549 11.884 7.5496H11.884ZM11.884 15.6269C13.4331 15.6269 14.6889 16.8827 14.6889 18.4318C14.6889 19.9809 13.4331 21.2367 11.884 21.2367C10.3349 21.2367 9.07909 19.9809 9.07909 18.4318C9.0809 16.8834 10.3356 15.6287 11.8838 15.6269H11.884ZM11.884 19.655C12.5596 19.655 13.1072 19.1073 13.1072 18.4318C13.1072 17.7562 12.5596 17.2086 11.884 17.2086C11.2085 17.2086 10.6608 17.7562 10.6608 18.4318C10.6614 19.1071 11.2087 19.6544 11.884 19.655H11.884ZM5.83132 9.57419C7.38041 9.57419 8.63623 10.83 8.63623 12.3791C8.63623 13.9282 7.38041 15.184 5.83132 15.184C4.28223 15.184 3.0264 13.9282 3.0264 12.3791C3.02821 10.8307 4.28292 9.576 5.83113 9.57419H5.83132ZM5.83132 13.6023C6.50687 13.6023 7.05453 13.0547 7.05453 12.3791C7.05453 11.7035 6.50687 11.1559 5.83132 11.1559C5.15577 11.1559 4.60811 11.7035 4.60811 12.3791C4.60873 13.0544 5.15602 13.6017 5.83127 13.6023H5.83134H5.83132ZM17.9367 9.57419C19.4858 9.57419 20.7416 10.83 20.7416 12.3791C20.7416 13.9282 19.4858 15.184 17.9367 15.184C16.3876 15.184 15.1318 13.9282 15.1318 12.3791C15.1336 10.8307 16.3883 9.576 17.9365 9.57419H17.9367H17.9367ZM17.9367 13.6023C18.6122 13.6023 19.1599 13.0547 19.1599 12.3791C19.1599 11.7035 18.6122 11.1559 17.9367 11.1559C17.2611 11.1559 16.7135 11.7035 16.7135 12.3791C16.7141 13.0544 17.2614 13.6017 17.9366 13.6023H17.9367ZM23.9894 24.263H11.884V22.6813H23.9894V24.263ZM12.8963 13.17H10.8822V11.5882H12.8963V13.17Z" fill="black"/>
</svg>
